<?xml version="1.0" standalone="no"?>
<!DOCTYPE svg PUBLIC "-//W3C//DTD SVG 20010904//EN"
 "http://www.w3.org/TR/2001/REC-SVG-20010904/DTD/svg10.dtd">
<svg version="1.0" xmlns="http://www.w3.org/2000/svg"
 width="260.000000pt" height="260.000000pt" viewBox="0 0 260.000000 260.000000"
 preserveAspectRatio="xMidYMid meet">
<metadata>
Created by potrace 1.11, written by Peter Selinger 2001-2013
</metadata>
<g transform="translate(0.000000,260.000000) scale(0.100000,-0.100000)"
fill="#000000" stroke="none">
<path d="M251 2584 c-71 -19 -110 -44 -165 -105 -87 -97 -81 -12 -84 -1159 -2
-1007 -2 -1015 19 -1084 18 -60 30 -78 83 -132 53 -52 73 -65 130 -83 67 -21
81 -21 1066 -21 985 0 999 0 1066 21 57 18 77 31 130 83 52 53 65 73 83 130
21 67 21 81 21 1066 0 985 0 999 -21 1066 -18 57 -31 77 -82 129 -109 108 -8
100 -1177 102 -866 2 -1023 0 -1069 -13z"/>
</g>
</svg>
